<?xml version="1.0" encoding="UTF-8"?><svg id="logosandtypes_com" xmlns="http://www.w3.org/2000/svg" viewBox="0 0 150 150"><defs><style>.cls-1,.cls-2{fill:#01427e;}.cls-2{fill-rule:evenodd;}.cls-3{fill:none;}</style></defs><path class="cls-3" d="M0,0H150V150H0V0Z"/><path class="cls-2" d="M71.93,122.52c24.97,0,45.93-20.97,45.93-47.56s-20.97-47.56-45.93-47.56S25.99,48.37,25.99,74.96s20.97,47.56,45.93,47.56Zm0,15.13c33.72,0,61.07-28.1,61.07-62.69S105.65,12.27,71.93,12.27,10.86,40.37,10.86,74.96s27.34,62.69,61.07,62.69Z"/><path class="cls-1" d="M143.37,119.6c-8.15-13.26-28.43-1.51-20.75,12.32,8.19,13.29,28.46,1.45,20.75-12.32Z"/></svg>